<svg width="74" height="73" viewBox="0 0 74 73" fill="none" xmlns="http://www.w3.org/2000/svg">
<path d="M73.4286 36.5714C73.4286 56.6904 57.119 73 37 73C16.881 73 0.571411 56.6904 0.571411 36.5714C0.571411 16.4524 16.881 0.142868 37 0.142868C57.119 0.142868 73.4286 16.4524 73.4286 36.5714ZM32.7863 55.8601L59.814 28.8324C60.7317 27.9147 60.7317 26.4265 59.814 25.5088L56.4903 22.1851C55.5725 21.2672 54.0844 21.2672 53.1665 22.1851L31.1244 44.227L20.8335 33.9361C19.9157 33.0183 18.4276 33.0183 17.5097 33.9361L14.186 37.2598C13.2682 38.1775 13.2682 39.6657 14.186 40.5834L29.4625 55.8599C30.3804 56.7778 31.8684 56.7778 32.7863 55.8601V55.8601Z" fill="#DDADF7"/>
</svg>
