<svg width="59" height="57" viewBox="0 0 59 57" fill="none" xmlns="http://www.w3.org/2000/svg">
<path d="M29.6996 0.661804C25.9149 0.661804 22.1673 1.40726 18.6706 2.8556C15.174 4.30395 11.9969 6.42682 9.32073 9.10302C3.91591 14.5078 0.879517 21.8383 0.879517 29.4819C0.879517 42.2204 9.15088 53.0279 20.5925 56.861C22.0335 57.0916 22.4946 56.1981 22.4946 55.42C22.4946 54.7571 22.4946 52.9415 22.4946 50.5494C14.5114 52.2786 12.811 46.6875 12.811 46.6875C11.4853 43.3444 9.61201 42.4509 9.61201 42.4509C6.98938 40.6641 9.81375 40.7217 9.81375 40.7217C12.6958 40.9235 14.2232 43.6902 14.2232 43.6902C16.7306 48.0709 20.9671 46.774 22.6099 46.0823C22.8693 44.209 23.6186 42.9409 24.4255 42.2204C18.0275 41.4999 11.3124 39.0214 11.3124 28.0409C11.3124 24.8419 12.4076 22.2769 14.2809 20.2307C13.9927 19.5101 12.984 16.5129 14.5691 12.6221C14.5691 12.6221 16.99 11.844 22.4946 15.5618C24.7714 14.9278 27.2499 14.6107 29.6996 14.6107C32.1493 14.6107 34.6279 14.9278 36.9046 15.5618C42.4093 11.844 44.8302 12.6221 44.8302 12.6221C46.4153 16.5129 45.4066 19.5101 45.1184 20.2307C46.9917 22.2769 48.0868 24.8419 48.0868 28.0409C48.0868 39.0502 41.3429 41.4711 34.9161 42.1916C35.9536 43.085 36.9046 44.843 36.9046 47.5233V55.42C36.9046 56.1981 37.3658 57.1204 38.8356 56.861C50.2772 52.9991 58.5197 42.2204 58.5197 29.4819C58.5197 25.6972 57.7743 21.9495 56.3259 18.4529C54.8776 14.9563 52.7547 11.7792 50.0785 9.10302C47.4023 6.42682 44.2252 4.30395 40.7286 2.8556C37.232 1.40726 33.4843 0.661804 29.6996 0.661804V0.661804Z" fill="white"/>
</svg>
