<svg width="76" height="76" viewBox="0 0 76 76" fill="none" xmlns="http://www.w3.org/2000/svg">
<path fill-rule="evenodd" clip-rule="evenodd" d="M11.1344 64.9659C7.63617 61.4676 4.8612 57.3146 2.96796 52.7439C1.07472 48.1732 0.100281 43.2744 0.100281 38.3271C0.100281 33.3798 1.07472 28.481 2.96796 23.9103C4.8612 19.3396 7.63617 15.1866 11.1344 11.6883C14.6327 8.19008 18.7857 5.41511 23.3564 3.52187C27.9271 1.62863 32.8259 0.65419 37.7732 0.65419C42.7205 0.65419 47.6193 1.62863 52.19 3.52187C56.7607 5.41511 60.9137 8.19008 64.412 11.6883C71.477 18.7534 75.4461 28.3356 75.4461 38.3271C75.4461 48.3186 71.477 57.9008 64.412 64.9659C57.3469 72.0309 47.7647 76 37.7732 76C27.7817 76 18.1995 72.0309 11.1344 64.9659V64.9659ZM28.4965 24.0588C27.827 23.435 26.9415 23.0954 26.0265 23.1115C25.1115 23.1277 24.2386 23.4983 23.5915 24.1454C22.9444 24.7925 22.5738 25.6654 22.5576 26.5804C22.5415 27.4954 22.8811 28.3809 23.5049 29.0504L32.7817 38.3271L23.5049 47.6038C23.1579 47.9271 22.8796 48.317 22.6866 48.7503C22.4936 49.1835 22.3898 49.6512 22.3814 50.1254C22.373 50.5996 22.4603 51.0706 22.6379 51.5104C22.8155 51.9501 23.0799 52.3496 23.4153 52.685C23.7507 53.0204 24.1501 53.2847 24.5899 53.4624C25.0297 53.64 25.5007 53.7272 25.9749 53.7189C26.4491 53.7105 26.9168 53.6067 27.35 53.4137C27.7832 53.2206 28.1731 52.9423 28.4965 52.5953L37.7732 43.3186L47.0499 52.5953C47.3732 52.9423 47.7631 53.2206 48.1964 53.4137C48.6296 53.6067 49.0973 53.7105 49.5715 53.7189C50.0457 53.7272 50.5167 53.64 50.9565 53.4624C51.3962 53.2847 51.7957 53.0204 52.1311 52.685C52.4665 52.3496 52.7308 51.9501 52.9085 51.5104C53.0861 51.0706 53.1733 50.5996 53.165 50.1254C53.1566 49.6512 53.0528 49.1835 52.8598 48.7503C52.6667 48.317 52.3884 47.9271 52.0414 47.6038L42.7647 38.3271L52.0414 29.0504C52.3884 28.7271 52.6667 28.3371 52.8598 27.9039C53.0528 27.4707 53.1566 27.003 53.165 26.5288C53.1733 26.0546 53.0861 25.5836 52.9085 25.1438C52.7308 24.704 52.4665 24.3046 52.1311 23.9692C51.7957 23.6338 51.3962 23.3694 50.9565 23.1918C50.5167 23.0142 50.0457 22.927 49.5715 22.9353C49.0973 22.9437 48.6296 23.0475 48.1964 23.2405C47.7631 23.4335 47.3732 23.7119 47.0499 24.0588L37.7732 33.3356L28.4965 24.0588Z" fill="#DDADF7"/>
</svg>
