<svg width="40" height="26" viewBox="0 0 40 26" fill="none" xmlns="http://www.w3.org/2000/svg">
<path d="M1.54207 3.1108C0.935217 3.1108 0.443268 2.61886 0.443268 2.01201C0.443268 1.40516 0.935217 0.913208 1.54207 0.913208H38.9012C39.5081 0.913208 40 1.40516 40 2.01201C40 2.61886 39.5081 3.1108 38.9012 3.1108H1.54207ZM1.54207 14.0988C0.935217 14.0988 0.443268 13.6068 0.443268 13C0.443268 12.3931 0.935217 11.9012 1.54207 11.9012H38.9012C39.5081 11.9012 40 12.3931 40 13C40 13.6068 39.5081 14.0988 38.9012 14.0988H1.54207ZM1.54207 25.0868C0.935217 25.0868 0.443268 24.5948 0.443268 23.988C0.443268 23.3811 0.935217 22.8892 1.54207 22.8892H38.9012C39.5081 22.8892 40 23.3811 40 23.988C40 24.5948 39.5081 25.0868 38.9012 25.0868H1.54207Z" fill="white"/>
</svg>
