<svg width="58" height="58" viewBox="0 0 58 58" fill="none" xmlns="http://www.w3.org/2000/svg">
<path d="M53.3708 0H4.25497C1.90613 0 0 1.8613 0 4.1533V53.4813C0 55.7765 1.90613 57.6402 4.25497 57.6402H53.3708C55.7213 57.6402 57.6402 55.7765 57.6402 53.4813V4.1533C57.6402 1.8613 55.7213 0 53.3708 0V0ZM17.0951 49.1174H8.54196V21.6111H17.0951V49.1174ZM12.8185 17.85C10.0782 17.85 7.86308 15.6293 7.86308 12.8914C7.86308 10.1575 10.0782 7.93673 12.8185 7.93673C15.5524 7.93673 17.7732 10.1575 17.7732 12.8914C17.7732 15.6293 15.5524 17.85 12.8185 17.85ZM49.1142 49.1174H40.5747V35.7417C40.5747 32.5507 40.5123 28.4478 36.1308 28.4478C31.6813 28.4478 31.0032 31.9231 31.0032 35.5104V49.1183H22.4573V21.6111H30.659V25.3673H30.7759C31.9175 23.2058 34.7066 20.925 38.8663 20.925C47.5171 20.925 49.115 26.6202 49.115 34.0293V49.1174H49.1142Z" fill="white"/>
</svg>
