<svg width="73" height="73" viewBox="0 0 73 73" fill="none" xmlns="http://www.w3.org/2000/svg">
<path d="M36.4321 72.8643C31.5152 72.8643 26.7406 71.9036 22.2506 70.0038C17.9101 68.1679 14.0178 65.5351 10.6735 62.1908C7.32912 58.8464 4.69633 54.9542 2.86049 50.6136C0.960613 46.1236 0 41.349 0 36.4321C0 35.0161 1.14562 33.8705 2.56163 33.8705C3.97765 33.8705 5.12327 35.0161 5.12327 36.4321C5.12327 40.6588 5.94868 44.7574 7.58528 48.6212C9.16496 52.3498 11.4206 55.7013 14.2953 58.576C17.1701 61.4508 20.5215 63.7135 24.2501 65.2861C28.1068 66.9156 32.2054 67.741 36.4321 67.741C40.6588 67.741 44.7574 66.9156 48.6212 65.279C52.3498 63.6993 55.7013 61.4436 58.576 58.5689C61.4508 55.6942 63.7135 52.3427 65.2861 48.6141C66.9156 44.7574 67.741 40.6588 67.741 36.4321C67.741 32.2054 66.9156 28.1068 65.279 24.243C63.7047 20.5234 61.4262 17.1431 58.5689 14.2882C55.7172 11.4271 52.3361 9.14813 48.6141 7.57817C44.7574 5.94868 40.6588 5.12327 36.4321 5.12327C35.0161 5.12327 33.8705 3.97765 33.8705 2.56163C33.8705 1.14562 35.0161 0 36.4321 0C41.349 0 46.1236 0.960613 50.6136 2.86049C54.9542 4.69633 58.8464 7.32912 62.1908 10.6735C65.5351 14.0178 68.1608 17.9172 69.9967 22.2506C71.8965 26.7406 72.8571 31.5152 72.8571 36.4321C72.8571 41.349 71.8965 46.1236 69.9967 50.6136C68.1679 54.9542 65.5351 58.8464 62.1908 62.1908C58.8464 65.5351 54.947 68.1608 50.6136 69.9967C46.1236 71.9036 41.349 72.8643 36.4321 72.8643V72.8643Z" fill="#DDADF7"/>
</svg>
